# xmcd
#
# Track frame offsets:
#  150
#  25575
#  47775
#  73725
#  99225
#  114000
#  168900
#  190575
#  207375
#  217050
#  233700
#  260250
#
# Disc length: 3798 seconds
#
# Revision: 1
# Processed by: cddbd v1.5.1PL2 Copyright (c) Steve Scherf et al.
# Submitted via: Collectorz.com_Music_Collector 6.10
#
DISCID=9a0ed40c
DTITLE=Various Artist - The Long Journey
DYEAR=2001
DGENRE=3 Jazz Contemporain - Contrebasse - Piano
TTITLE0=Nardis
TTITLE1=Footprints
TTITLE2=Golden Key
TTITLE3=Alice In Wonderland
TTITLE4=Tiroirs
TTITLE5=The Long Journey
TTITLE6=My Funny Valentine
TTITLE7=Straight, No Chaser
TTITLE8=Rythm-A-Ning
TTITLE9=My Foolish Heart
TTITLE10=T.T.T. In T.
TTITLE11=Mr P.C.
EXTD=
EXTT0=
EXTT1=
EXTT2=
EXTT3=
EXTT4=
EXTT5=
EXTT6=
EXTT7=
EXTT8=
EXTT9=
EXTT10=
EXTT11=
PLAYORDER=
